<svg width="48" height="60" viewBox="0 0 48 60" fill="none" xmlns="http://www.w3.org/2000/svg">
<path d="M11.8199 43.1995H13.7549C13.9924 43.2118 14.2294 43.167 14.446 43.0689C14.6626 42.9707 14.8525 42.8221 14.9999 42.6355C15.2939 42.2575 15.4409 41.7055 15.4409 40.9855C15.4409 40.2355 15.2909 39.6415 14.9909 39.2035C14.8647 38.9957 14.6873 38.824 14.4755 38.7047C14.2638 38.5855 14.0249 38.5227 13.7819 38.5225H11.8199V43.2025V43.1995Z" fill="#1F3547"/>
<path d="M22.9951 38.5225V48.4855H23.8351C24.7771 48.4855 25.4371 48.2215 25.8211 47.6935C26.2051 47.1565 26.4061 46.2355 26.4241 44.9335V42.3235C26.4241 40.9255 26.2441 39.9475 25.8781 39.3985C25.5151 38.8435 24.8941 38.5525 24.0181 38.5225H22.9951Z" fill="#1F3547"/>
<path fill-rule="evenodd" clip-rule="evenodd" d="M47.811 20.04L47.781 19.956C47.6402 19.5541 47.4152 19.1869 47.121 18.879L29.124 0.879C28.6017 0.372628 27.9127 0.0739923 27.186 0.039C27.156 0.039 27.126 0.0270001 27.099 0.0180001C27.0671 0.0071941 27.0337 0.00112949 27 0H6C2.691 0 0 2.691 0 6V54C0 57.309 2.691 60 6 60H42C45.309 60 48 57.309 48 54V21C47.9989 20.9663 47.9928 20.9329 47.982 20.901C47.972 20.8728 47.965 20.8436 47.961 20.814C47.9456 20.5505 47.8952 20.2902 47.811 20.04ZM27 6V21H42L27 6ZM11.82 45.726V51H9V36H13.755C15.135 36 16.233 36.459 17.052 37.38C17.874 38.301 18.288 39.495 18.288 40.965C18.288 42.435 17.883 43.596 17.07 44.445C16.26 45.3 15.135 45.726 13.698 45.726H11.817H11.82ZM20.172 51V36H23.862C25.491 36 26.79 36.555 27.753 37.668C28.725 38.781 29.223 40.308 29.241 42.243V44.673C29.241 46.647 28.755 48.195 27.783 49.323C26.817 50.439 25.485 51 23.787 51H20.172ZM34.092 44.88H38.472V42.366H34.092V38.526H39V36H31.275V51H34.095V44.88H34.092Z" fill="#1F3547"/>
</svg>
